PathFileType	3	(X/Y/Z)	D:\Vicon Database\Healthy Subjects\S0040\Jan. 30, 2020\Force Plate Walk 9.trc
DataRate	CameraRate	NumFrames	NumMarkers	Units	OrigDataRate	OrigDataStartFrame	OrigNumFrames
100.0	100.0	4	53	mm	100.0	517	299	
Frame#	Time	right_foot_cluster2			right_foot_cluster3			sternum_cluster1			sternum_cluster2			sternum_cluster3			left_asis			right_asis			left_psis			right_psis			sacrum_cluster1			sacrum_cluster2			sacrum_cluster3			left_lat_femoral_epicondyle			left_anterior_thigh15			left_anterior_thigh25			left_anterior_thigh50			left_lateral_thigh25			left_lateral_thigh50			left_thigh_cluster1			left_thigh_cluster2			left_thigh_cluster3			left_fibular_head			left_tibial_tuberosity			left_anterior_shank30			left_lateral_malleolus			left_shank_cluster1			left_shank_cluster2			left_shank_cluster3			left_heel			left_metatarsal2			left_foot_cluster1			left_foot_cluster2			left_foot_cluster3			right_lat_femoral_epicondyle			right_anterior_thigh15			right_anterior_thigh25			right_anterior_thigh50			right_lateral_thigh25			right_lateral_thigh50			right_thigh_cluster1			right_thigh_cluster2			right_thigh_cluster3			right_fibular_head			right_tibial_tuberosity			right_lateral_distal_shank			right_anterior_shank30			right_lateral_malleolus			right_shank_cluster1			right_shank_cluster2			right_shank_cluster3			right_heel			right_metatarsal2			right_foot_cluster1			
		X1	Y1	Z1	X2	Y2	Z2	X3	Y3	Z3	X4	Y4	Z4	X5	Y5	Z5	X6	Y6	Z6	X7	Y7	Z7	X8	Y8	Z8	X9	Y9	Z9	X10	Y10	Z10	X11	Y11	Z11	X12	Y12	Z12	X13	Y13	Z13	X14	Y14	Z14	X15	Y15	Z15	X16	Y16	Z16	X17	Y17	Z17	X18	Y18	Z18	X19	Y19	Z19	X20	Y20	Z20	X21	Y21	Z21	X22	Y22	Z22	X23	Y23	Z23	X24	Y24	Z24	X25	Y25	Z25	X26	Y26	Z26	X27	Y27	Z27	X28	Y28	Z28	X29	Y29	Z29	X30	Y30	Z30	X31	Y31	Z31	X32	Y32	Z32	X33	Y33	Z33	X34	Y34	Z34	X35	Y35	Z35	X36	Y36	Z36	X37	Y37	Z37	X38	Y38	Z38	X39	Y39	Z39	X40	Y40	Z40	X41	Y41	Z41	X42	Y42	Z42	X43	Y43	Z43	X44	Y44	Z44	X45	Y45	Z45	X46	Y46	Z46	X47	Y47	Z47	X48	Y48	Z48	X49	Y49	Z49	X50	Y50	Z50	X51	Y51	Z51	X52	Y52	Z52	X53	Y53	Z53	
517	5.16	72.9534	137.4834	-184.64008	70.641312	140.42026	-221.85828	-65.134872	1449.9526	-104.17709	-77.857147	1422.84	-95.759033	-75.901695	1425.6465	-133.4762	-61.699055	1073.3643	11.900554	-63.561073	1074.6718	-237.21036	103.66214	1084.9044	-39.993176	104.93908	1084.7531	-157.62473	112.56023	1141.776	-106.45567	118.73203	1116.2781	-118.01442	121.20234	1111.6118	-78.770256	-41.156563	540.77539	17.524145	-128.76364	629.33356	-31.355858	-137.62837	714.64709	-10.917306	-123.05954	851.61835	14.921482	-27.133606	692.45129	44.87896	-22.055662	839.34692	78.381104	-21.273527	791.93298	82.637344	-20.74366	762.66876	77.124077	-56.202778	774.99652	81.794212	-44.893669	459.76828	21.037502	-97.580971	450.38007	-36.375893	-45.455902	202.61674	-57.488625	21.785145	96.749161	-33.328842	-90.666374	395.94128	-66.575111	-91.537193	367.71048	-59.412109	-75.845734	371.30859	-94.381714	96.673859	65.600052	-72.115044	-121.71943	61.933418	-63.537395	-62.868237	111.59727	-60.403557	-85.796516	94.88868	-49.267056	-91.587715	99.82299	-86.837662	-124.21941	537.33777	-268.22684	-197.05031	632.10565	-214.15726	-187.77448	716.41431	-205.68892	-145.27911	842.19354	-204.79266	-88.560646	688.25079	-282.43005	-44.872093	830.13464	-298.21823	-53.184189	779.70337	-307.15491	-71.48082	756.78168	-306.15387	-35.592747	745.50555	-298.47186	-95.092262	482.54187	-273.54739				89.267784	292.37302	-248.38701				158.90985	213.66884	-232.73061	-83.620071	401.95135	-167.52364	-61.232582	385.82501	-160.24686	-77.010513	368.84802	-190.09685	237.22096	237.30119	-193.83215	71.561363	93.612175	-194.11057	80.195015	164.31613	-193.30072
518	5.17	30.50938	134.60925	-182.752	28.952681	137.55426	-220.04704	-79.236977	1451.739	-103.22682	-91.876289	1424.5389	-94.82473	-89.912132	1427.3334	-132.52196	-74.838608	1074.5042	12.755507	-77.180969	1077.5582	-235.93739	90.359833	1087.0667	-39.709152	91.424667	1087.5157	-157.46347	99.010002	1144.2115	-105.95871	105.36037	1118.9004	-117.48187	107.78775	1113.9769	-78.223816	-43.733944	541.56293	17.099388	-133.59987	628.12177	-30.95822	-144.6183	713.28461	-10.600119	-133.23148	850.6994	15.539435	-33.279362	693.38098	44.361076	-31.560823	840.00531	78.271217	-29.526369	792.95886	82.256775	-28.406422	763.09521	76.556396	-64.16346	775.29498	81.619095	-45.957375	460.55002	20.944998	-99.473495	450.21927	-35.790115	-46.213223	202.96834	-56.939739	21.489887	97.089287	-33.593414	-92.903572	395.95966	-65.815903	-93.578972	367.78568	-58.566605	-78.472549	371.30872	-93.796219	96.50145	65.526726	-72.460182	-121.98311	61.730122	-63.64888	-63.217545	111.57918	-60.487354	-86.141617	94.872513	-49.34211	-91.903336	99.765022	-86.947731	-146.22006	541.75861	-267.12979	-217.46318	638.79999	-213.34798	-206.28265	723.02075	-204.72534	-160.85675	847.55975	-203.6019	-107.72878	692.98895	-281.9534	-61.604652	834.091	-298.4729	-71.987389	783.72955	-307.59183	-90.098892	761.15363	-306.32205	-54.226994	749.08521	-298.96371	-118.3254	485.57361	-272.02505				56.140419	286.61514	-245.55841				122.19521	204.23885	-229.29825	-111.81031	404.37183	-166.41437	-90.194756	387.14526	-158.82011	-106.64799	370.94937	-188.733	201.78088	223.15726	-188.7851	26.250002	90.895477	-192.1078	39.872139	160.76466	-191.28577
519	5.18	-12.521054	131.65834	-181.12605	-13.208139	134.45543	-218.50259	-93.397514	1453.1621	-102.31886	-105.92406	1425.9266	-93.866783	-103.88582	1428.6904	-131.59314	-88.051308	1075.311	13.468306	-90.586487	1080.0612	-234.92976	76.717796	1088.5238	-39.654018	78.10125	1089.9377	-157.02335	85.77417	1146.3389	-105.1424	92.030449	1121.1615	-116.89788	94.332039	1115.8582	-77.845016	-46.496777	542.26202	16.787973	-138.47746	626.98071	-30.409056	-151.62669	711.86926	-10.142168	-143.39223	849.66437	16.191216	-39.550331	694.29565	43.962742	-41.176277	840.76135	78.132538	-37.813042	793.77899	82.001228	-36.341969	764.59991	76.331215	-72.143204	775.49677	81.530319	-46.895741	461.29126	20.544306	-101.37014	450.18597	-35.014313	-47.032207	203.37723	-56.416382	21.092726	97.581345	-33.800991	-95.040161	396.06107	-65.094032	-95.465141	367.84259	-57.767178	-80.926231	371.42191	-93.177002	96.22802	65.926712	-72.480972	-122.26505	61.471558	-63.680962	-63.628307	111.55364	-60.517525	-86.58905	94.891396	-49.382278	-92.230576	99.681755	-86.987259	-167.56245	545.98206	-265.94989	-237.35066	645.10553	-212.43727	-224.4292	729.26666	-203.79048	-176.22678	852.52087	-202.55688	-127.49602	697.3421	-282.34436	-77.56086	837.75928	-298.67886	-89.635536	787.33765	-307.97891	-108.43273	765.2182	-306.56079	-72.500038	752.41083	-299.57239	-140.37114	488.56436	-270.38892	-187.38988	457.10764	-224.51662	22.706074	280.23618	-242.98645	-23.873867	265.20905	-197.97125	84.390823	194.11406	-226.32185	-139.77548	406.58252	-165.21706	-119.06464	388.03189	-157.63672	-135.93423	372.79852	-187.61974	163.43021	206.06509	-185.73679	-19.797424	88.30764	-190.43117	-1.0915564	156.89552	-189.74272
520	5.19	-56.346928	129.02567	-179.77429	-55.908024	131.13435	-217.12703	-107.50588	1454.2511	-101.44937	-119.96828	1426.9817	-92.983925	-117.86797	1429.6639	-130.7215	-101.28623	1075.8605	14.01097	-103.90453	1082.1345	-234.10243	63.272305	1089.8162	-39.379097	64.727554	1091.6973	-156.7119	72.511894	1147.9521	-104.43063	78.602699	1122.7362	-116.43653	80.854805	1117.2605	-77.338287	-49.47718	542.96655	16.805468	-143.43884	625.88446	-29.766277	-158.68396	710.44086	-9.5603952	-153.50807	848.53625	16.858534	-45.861572	695.1402	43.883278	-50.774345	841.24188	78.09008	-45.095295	793.91315	81.348633	-44.054367	765.4682	76.196793	-80.152534	775.71893	81.570389	-48.994556	461.96295	20.973791	-103.54866	450.28119	-34.294109	-47.945549	203.80638	-56.05983	20.736221	98.02066	-33.936596	-97.086929	396.19144	-64.52507	-97.29039	368.04022	-57.17831	-82.967712	371.49829	-92.749931	96.071503	66.892357	-72.427711	-122.55942	61.200218	-63.692181	-64.066986	111.55984	-60.487675	-86.964691	94.798203	-49.372883	-92.643211	99.573952	-87.013123	-187.89146	549.79987	-264.66913	-256.63712	650.8623	-211.36378	-242.19359	735.0531	-202.85425	-191.37674	857.01367	-201.63252	-146.63478	701.4361	-282.51746	-94.295067	840.99048	-299.52457	-106.92499	790.6192	-308.35709	-126.0913	768.85736	-306.65683	-90.348328	755.37421	-300.34344	-161.96754	491.1217	-268.58096	-211.72235	461.46268	-223.37082	-10.909173	273.74124	-240.51675	-58.370556	260.92371	-196.44713	45.801231	183.57466	-223.56766	-167.20486	408.37958	-164.1899	-147.90111	388.61191	-156.4222	-164.93384	374.42126	-186.68462	125.56599	190.33032	-181.72601	-66.136635	85.760078	-188.96014	-42.56583	152.8495	-188.2379
